HIERARCHY
ROOT Hips
{
  OFFSET -43.3411 73.6987 0
  CHANNELS 6 Xposition Yposition Zposition Zrotation Xrotation Yrotation
  JOINT Bip01_Pelvis
  {
    OFFSET 0 0 0
    CHANNELS 6 Xposition Yposition Zposition Zrotation Xrotation Yrotation
    JOINT BN_Tail_01
    {
      OFFSET -18.6385 -9.591 -2.032e-005
      CHANNELS 6 Xposition Yposition Zposition Zrotation Xrotation Yrotation
      JOINT BN_Tail_02
      {
        OFFSET 20.9743 0 0
        CHANNELS 6 Xposition Yposition Zposition Zrotation Xrotation Yrotation
        JOINT BN_Tail_03
        {
          OFFSET 20.3015 0 0
          CHANNELS 6 Xposition Yposition Zposition Zrotation Xrotation Yrotation
          JOINT BN_Tail_04
          {
            OFFSET 21.6394 -9.91821e-005 0
            CHANNELS 6 Xposition Yposition Zposition Zrotation Xrotation Yrotation
            End Site
            {
              OFFSET 0 0 0
            }
          }
        }
      }
    }
    JOINT Bip01_Spine
    {
      OFFSET 22.1878 -0.659386 3.048e-005
      CHANNELS 6 Xposition Yposition Zposition Zrotation Xrotation Yrotation
      JOINT Bip01_R_Thigh
      {
        OFFSET -22.1873 0.677109 -17.1024
        CHANNELS 6 Xposition Yposition Zposition Zrotation Xrotation Yrotation
        JOINT Bip01_R_Calf
        {
          OFFSET 34.2647 0 0
          CHANNELS 6 Xposition Yposition Zposition Zrotation Xrotation Yrotation
          JOINT Bip01_R_HorseLink
          {
            OFFSET 20.4429 0 0
            CHANNELS 6 Xposition Yposition Zposition Zrotation Xrotation Yrotation
            JOINT Bip01_R_Foot
            {
              OFFSET 16.5673 0 0
              CHANNELS 6 Xposition Yposition Zposition Zrotation Xrotation Yrotation
              JOINT Bip01_R_Toe0
              {
                OFFSET 9.18784 6.94841 0
                CHANNELS 6 Xposition Yposition Zposition Zrotation Xrotation Yrotation
                JOINT Bip01_R_Toe0Nub
                {
                  OFFSET 1.01907 0 0
                  CHANNELS 6 Xposition Yposition Zposition Zrotation Xrotation Yrotation
                  End Site
                  {
                    OFFSET 0 0 0
                  }
                }
              }
            }
          }
        }
      }
      JOINT Bip01_L_Thigh
      {
        OFFSET -22.1873 0.67701 17.1024
        CHANNELS 6 Xposition Yposition Zposition Zrotation Xrotation Yrotation
        JOINT Bip01_L_Calf
        {
          OFFSET 34.2647 0 0
          CHANNELS 6 Xposition Yposition Zposition Zrotation Xrotation Yrotation
          JOINT Bip01_L_HorseLink
          {
            OFFSET 20.4429 0 0
            CHANNELS 6 Xposition Yposition Zposition Zrotation Xrotation Yrotation
            JOINT Bip01_L_Foot
            {
              OFFSET 16.5673 0 0
              CHANNELS 6 Xposition Yposition Zposition Zrotation Xrotation Yrotation
              JOINT Bip01_L_Toe0
              {
                OFFSET 9.18784 6.9484 1.14441e-005
                CHANNELS 6 Xposition Yposition Zposition Zrotation Xrotation Yrotation
                JOINT Bip01_L_Toe0Nub
                {
                  OFFSET 1.01907 0 0
                  CHANNELS 6 Xposition Yposition Zposition Zrotation Xrotation Yrotation
                  End Site
                  {
                    OFFSET 0 0 0
                  }
                }
              }
            }
          }
        }
      }
      JOINT Bip01_Spine1
      {
        OFFSET 39.3372 -0.0249863 0
        CHANNELS 6 Xposition Yposition Zposition Zrotation Xrotation Yrotation
        JOINT Bip01_Neck
        {
          OFFSET 34.2837 -15.5934 -4.318e-005
          CHANNELS 6 Xposition Yposition Zposition Zrotation Xrotation Yrotation
          JOINT Bip01_R_Clavicle
          {
            OFFSET -17.9452 -11.3131 -6.19287
            CHANNELS 6 Xposition Yposition Zposition Zrotation Xrotation Yrotation
            JOINT Bip01_R_UpperArm
            {
              OFFSET 17.4439 1.52588e-005 -2.28882e-005
              CHANNELS 6 Xposition Yposition Zposition Zrotation Xrotation Yrotation
              JOINT Bip01_R_Forearm
              {
                OFFSET 30.6251 1.14441e-005 0
                CHANNELS 6 Xposition Yposition Zposition Zrotation Xrotation Yrotation
                JOINT Bip01_R_Hand
                {
                  OFFSET 31.2039 0 0
                  CHANNELS 6 Xposition Yposition Zposition Zrotation Xrotation Yrotation
                  JOINT Bip01_R_Finger0
                  {
                    OFFSET 22.1039 0.255862 -0.37902
                    CHANNELS 6 Xposition Yposition Zposition Zrotation Xrotation Yrotation
                    JOINT Bip01_R_Finger0Nub
                    {
                      OFFSET 12.0552 0 0
                      CHANNELS 6 Xposition Yposition Zposition Zrotation Xrotation Yrotation
                      End Site
                      {
                        OFFSET 0 0 0
                      }
                    }
                  }
                }
              }
            }
          }
          JOINT Bip01_L_Clavicle
          {
            OFFSET -17.9452 -11.3132 6.19281
            CHANNELS 6 Xposition Yposition Zposition Zrotation Xrotation Yrotation
            JOINT Bip01_L_UpperArm
            {
              OFFSET 17.444 0 1.14441e-005
              CHANNELS 6 Xposition Yposition Zposition Zrotation Xrotation Yrotation
              JOINT Bip01_L_Forearm
              {
                OFFSET 30.6251 0 0
                CHANNELS 6 Xposition Yposition Zposition Zrotation Xrotation Yrotation
                JOINT Bip01_L_Hand
                {
                  OFFSET 31.204 0 0
                  CHANNELS 6 Xposition Yposition Zposition Zrotation Xrotation Yrotation
                  JOINT Bip01_L_Finger0
                  {
                    OFFSET 22.1039 0.255856 0.379024
                    CHANNELS 6 Xposition Yposition Zposition Zrotation Xrotation Yrotation
                    JOINT Bip01_L_Finger0Nub
                    {
                      OFFSET 12.0552 0 0
                      CHANNELS 6 Xposition Yposition Zposition Zrotation Xrotation Yrotation
                      End Site
                      {
                        OFFSET 0 0 0
                      }
                    }
                  }
                }
              }
            }
          }
          JOINT Bip01_Neck1
          {
            OFFSET 14.9359 -0.0106278 0
            CHANNELS 6 Xposition Yposition Zposition Zrotation Xrotation Yrotation
            JOINT Bip01_Head
            {
              OFFSET 14.3578 0.505501 0
              CHANNELS 6 Xposition Yposition Zposition Zrotation Xrotation Yrotation
              JOINT BN_Ear_L_01
              {
                OFFSET 3.76994 -2.35629 12.3444
                CHANNELS 6 Xposition Yposition Zposition Zrotation Xrotation Yrotation
                End Site
                {
                  OFFSET 0 0 0
                }
              }
              JOINT BN_Ear_R_01
              {
                OFFSET 3.76995 -2.35622 -12.3442
                CHANNELS 6 Xposition Yposition Zposition Zrotation Xrotation Yrotation
                End Site
                {
                  OFFSET 0 0 0
                }
              }
              JOINT BN_Mouth_01
              {
                OFFSET 11.8395 10.8645 1.27e-005
                CHANNELS 6 Xposition Yposition Zposition Zrotation Xrotation Yrotation
                JOINT BN_Tongue_01
                {
                  OFFSET 9.73752 3.21674 1.016e-005
                  CHANNELS 6 Xposition Yposition Zposition Zrotation Xrotation Yrotation
                  JOINT BN_Tongue_02
                  {
                    OFFSET 9.04304 0.053505 0
                    CHANNELS 6 Xposition Yposition Zposition Zrotation Xrotation Yrotation
                    End Site
                    {
                      OFFSET 0 0 0
                    }
                  }
                }
                JOINT BN_Beard_01
                {
                  OFFSET 6.93466 -0.751793 0
                  CHANNELS 6 Xposition Yposition Zposition Zrotation Xrotation Yrotation
                  JOINT BN_Beard_02
                  {
                    OFFSET 13.0965 1.52588e-005 0
                    CHANNELS 6 Xposition Yposition Zposition Zrotation Xrotation Yrotation
                    End Site
                    {
                      OFFSET 0 0 0
                    }
                  }
                }
              }
              JOINT Bip01_HeadNub
              {
                OFFSET 25.6158 0 0
                CHANNELS 6 Xposition Yposition Zposition Zrotation Xrotation Yrotation
                End Site
                {
                  OFFSET 0 0 0
                }
              }
            }
          }
        }
      }
    }
  }
}
MOTION
Frames:	4
Frame Time:	0.0333333
-42.555 10.8257 1.37519 176.4 -4.99981 -98.7484 4.76837e-007 1.77636e-015 0 -94.013 -7.29358 -88.3443 -18.6385 -9.59099 -6.58934e-008 -21.201 0.314221 -172.964 20.9743 1.90735e-006 1.42109e-014 13.0864 -1.02267 2.34927 20.3015 -7.6294e-006 3.8147e-006 2.49017 4.77994 -2.28523 21.6394 -1.42109e-014 3.55271e-015 -12.0226 -2.39457 -2.51394 21.9123 -3.46581 0.579387 -17.1457 14.7499 7.2335 -19.7509 -7.50064 -18.9328 -78.6681 -28.2789 170.019 34.2647 -1.90735e-006 3.8147e-006 -93.0694 -9.19973e-006 1.62309e-005 20.4429 3.8147e-006 -7.10543e-015 58.6016 4.59921e-006 9.0614e-007 16.5673 -3.8147e-006 3.8147e-006 -40.4873 4.54786 5.52286 9.18783 6.9484 -2.6701e-008 85.3351 55.9538 73.463 1.01906 1.42109e-014 -7.6294e-006 -3.97943e-008 -1.09057e-008 2.38287e-007 -23.8956 1.21919 13.8813 -83.0763 -5.91068 152.373 34.2647 1.42109e-014 -2.38419e-007 -62.7061 1.30667e-005 1.67055e-005 20.4429 3.8147e-006 4.76837e-007 72.0391 1.52551e-006 -2.83991e-006 16.5673 7.6294e-006 2.38419e-007 -54.5059 -8.97581 20.6378 9.18785 6.94841 1.91772e-006 124.997 0.000833569 -0.000587045 1.01907 -2.84217e-014 1.42109e-014 -179.96 -8.23411e-005 4.47688e-005 39.345 -0.0175152 -0.0160246 27.2342 39.532 -6.1059 34.2857 -15.5931 0.00102712 10.2535 -4.71422 1.4695 -19.0857 -8.37548 -7.34975 170.269 -41.8159 114.19 17.4439 3.8147e-006 -3.8147e-006 110.016 48.9015 -150.25 30.6251 3.8147e-006 -3.33786e-006 -56.3045 -2.35388e-006 1.19239e-005 31.2039 -1.90735e-006 -4.76837e-007 -151.581 85.8516 148.309 22.1039 0.255848 -0.379028 -1.69405 4.10709 -24.5926 12.0552 -2.26498e-006 -1.90735e-006 -179.96 1.84497e-005 1.74997e-005 -19.3928 -9.34794 4.99321 169.697 1.3366 -105.97 17.4439 7.10543e-014 7.62939e-006 -144.951 -58.0356 -98.728 30.6251 3.8147e-006 0 -66.8268 -1.00334e-005 -1.75656e-005 31.2039 5.72206e-006 -3.81469e-006 172.119 -84.0846 152.378 22.1039 0.255875 0.379043 -4.97938 1.99249 4.44996 12.0552 0 -1.19209e-007 2.97264e-007 -2.40659e-009 2.65449e-008 14.939 -0.00992966 5.96105e-008 21.3387 1.56408 14.8107 14.3577 0.50549 9.47095e-007 -8.49657 24.6346 7.86196 3.76992 -2.35629 12.3444 -173.11 23.1696 -94.374 3.76995 -2.35624 -12.3442 6.06224 29.965 100.18 11.8395 10.8645 -3.36102e-007 -177.29 -3.76674 178.777 9.7375 3.21676 -7.76195e-006 -2.85749 1.04789e-005 2.27509e-006 2.55461 -1.10588 -0.153767 4.77837 -2.94618 -1.72235 6.93462 -0.751784 -7.59842e-006 -55.6103 -25.9097 -57.6451 13.0966 -7.6294e-006 -9.53674e-007 3.94403 41.2487 -20.906 25.6158 3.8147e-006 7.6294e-006 -1.83992e-007 2.35671e-006 -1.09063e-006 
-42.555 10.8294 1.37519 176.4 -4.99981 -98.7484 4.76837e-007 3.55271e-015 0 -94.0201 -7.29362 -88.338 -18.6385 -9.59099 -6.57376e-008 -21.201 0.314205 -172.964 20.9743 1.90735e-006 1.06581e-014 13.0863 -1.02466 2.33134 20.3015 -7.6294e-006 3.8147e-006 2.49017 4.77994 -2.28523 21.6394 -5.68434e-014 2.13163e-014 -12.0226 -2.39457 -2.51394 21.9121 -3.46608 0.583059 -17.1419 14.7634 7.217 -19.7556 -7.50279 -18.9289 -78.6709 -28.2921 170.02 34.2647 -1.90735e-006 3.8147e-006 -93.0642 -9.19829e-006 1.6231e-005 20.4429 3.8147e-006 -7.10543e-015 58.5934 4.59898e-006 9.06381e-007 16.5673 -3.8147e-006 3.8147e-006 -40.4873 4.54786 5.52286 9.18783 6.9484 -2.66591e-008 85.335 55.9538 73.463 1.01906 0 -7.6294e-006 -3.97943e-008 -1.09057e-008 2.38287e-007 -23.8918 1.22377 13.8844 -83.0792 -5.91018 152.362 34.2647 7.10543e-015 -2.38419e-007 -62.7145 1.30599e-005 1.6698e-005 20.4429 3.8147e-006 4.76837e-007 72.0479 -7.11408e-006 -5.64156e-006 16.5673 7.6294e-006 2.38419e-007 -54.5059 -8.97581 20.6378 9.18785 6.94841 1.91765e-006 124.996 0.000643724 -0.000454124 1.01907 -4.26326e-014 1.06581e-014 -179.96 -8.23411e-005 4.47688e-005 39.345 -0.0175152 -0.0160246 27.2223 39.5341 -6.09419 34.2857 -15.5931 0.00102712 10.2605 -4.71473 1.46626 -19.0863 -8.37584 -7.34971 170.267 -41.8104 114.186 17.4439 3.8147e-006 -3.8147e-006 110.014 48.8997 -150.246 30.6251 3.8147e-006 -3.33786e-006 -56.3044 -2.35752e-006 1.19221e-005 31.2039 -1.90735e-006 -4.76837e-007 -151.686 85.8493 148.399 22.1039 0.255848 -0.379028 -1.69405 4.10709 -24.5926 12.0552 -2.26498e-006 -1.90735e-006 -179.96 1.84497e-005 1.74997e-005 -19.3938 -9.34458 4.99518 169.675 1.35288 -105.972 17.4439 5.68434e-014 7.62939e-006 -144.954 -58.0471 -98.7308 30.6251 3.8147e-006 0 -66.8268 -1.0029e-005 -1.75647e-005 31.2039 5.72206e-006 -3.8147e-006 172.124 -84.0814 152.393 22.1039 0.255875 0.379043 -4.97938 1.99249 4.44996 12.0552 7.10545e-015 -1.19209e-007 2.97264e-007 -2.40659e-009 2.65449e-008 14.939 -0.00992966 5.96104e-008 21.336 1.55734 14.8156 14.3577 0.50549 9.47116e-007 -8.51099 24.6442 7.87332 3.76992 -2.35629 12.3444 -173.113 23.1362 -94.3729 3.76995 -2.35624 -12.3442 6.06852 29.9346 100.177 11.8395 10.8645 -3.35067e-007 -177.279 -3.7589 178.777 9.7375 3.21676 -7.76156e-006 -2.85749 1.01058e-005 9.74848e-006 2.55461 -1.10588 -0.153767 4.77837 -2.94618 -1.72235 6.93462 -0.751784 -7.59851e-006 -55.6087 -25.9128 -57.6434 13.0966 -7.6294e-006 -9.53674e-007 3.94399 41.2487 -20.9059 25.6158 3.8147e-006 7.6294e-006 -1.83992e-007 2.35671e-006 -1.09063e-006 
-42.555 10.8331 1.37519 176.4 -4.99981 -98.7484 4.76837e-007 0 0 -94.0412 -7.29344 -88.3264 -18.6385 -9.59099 -6.52956e-008 -21.2015 0.310821 -172.908 20.9743 1.90735e-006 1.06581e-014 13.0857 -1.02409 2.27549 20.3015 -7.6294e-006 3.8147e-006 2.49017 4.77994 -2.28523 21.6394 -3.55271e-014 1.42109e-014 -12.0226 -2.39457 -2.51394 21.912 -3.46635 0.586659 -17.1329 14.7941 7.17837 -19.7693 -7.50945 -18.9173 -78.6894 -28.3169 170.017 34.2647 -1.90735e-006 3.8147e-006 -93.0491 8.07545e-007 1.67911e-005 20.4429 3.8147e-006 0 58.5735 4.59841e-006 9.06498e-007 16.5673 -3.8147e-006 3.8147e-006 -40.4873 4.54786 5.52286 9.18783 6.9484 -2.65362e-008 85.335 55.9537 73.4631 1.01906 1.42109e-014 -7.6294e-006 -3.97943e-008 -1.09057e-008 2.38287e-007 -23.8816 1.23608 13.894 -83.084 -5.93977 152.358 34.2647 0 -2.38419e-007 -62.7348 1.30425e-005 1.66844e-005 20.4429 3.8147e-006 4.76837e-007 72.0694 1.5366e-006 -2.84798e-006 16.5673 7.6294e-006 2.38419e-007 -54.5059 -8.97581 20.6378 9.18785 6.94841 1.91763e-006 124.996 0.000456175 -0.000322813 1.01907 0 1.77636e-014 -179.96 -8.23411e-005 4.47688e-005 39.345 -0.0175152 -0.0160246 27.1901 39.5376 -6.05674 34.2857 -15.5931 0.00102712 10.274 -4.71637 1.45634 -19.0911 -8.36821 -7.34581 170.238 -41.8165 114.167 17.4439 3.8147e-006 -3.8147e-006 110.012 48.8959 -150.239 30.6251 3.8147e-006 -3.33786e-006 -56.2966 5.96839e-006 6.35708e-006 31.2039 -1.90735e-006 -4.76837e-007 -151.771 85.8508 148.445 22.1039 0.255848 -0.379028 -1.69405 4.10709 -24.5926 12.0552 -2.26498e-006 -1.90735e-006 -179.96 1.84497e-005 1.74997e-005 -19.3949 -9.34127 4.99711 169.686 1.31711 -105.985 17.4439 7.10543e-014 7.62939e-006 -144.956 -58.0516 -98.7319 30.6251 3.8147e-006 0 -66.8268 -1.00339e-005 -1.75625e-005 31.2039 5.72206e-006 -3.8147e-006 172.134 -84.082 152.43 22.1039 0.255875 0.379043 -4.97938 1.99249 4.44996 12.0552 0 -1.19209e-007 2.97264e-007 -2.40659e-009 2.65449e-008 14.939 -0.00992966 5.96104e-008 21.3377 1.54513 14.825 14.3577 0.50549 9.47153e-007 -8.5455 24.6626 7.89336 3.76992 -2.35629 12.3444 -173.115 23.1034 -94.3719 3.76995 -2.35624 -12.3442 6.07468 29.9048 100.174 11.8395 10.8645 -3.33003e-007 -177.251 -3.73852 178.777 9.7375 3.21676 -7.76074e-006 -2.85749 1.01056e-005 9.74922e-006 2.55461 -1.10588 -0.153767 4.77837 -2.94618 -1.72235 6.93462 -0.751784 -7.5987e-006 -55.6072 -25.9158 -57.6417 13.0966 -7.6294e-006 -9.53674e-007 3.94405 41.2487 -20.906 25.6158 3.8147e-006 7.6294e-006 -1.83992e-007 2.35671e-006 -1.09063e-006 
-42.555 10.8435 1.37519 176.4 -4.99981 -98.7484 4.76837e-007 1.77636e-015 0 -94.0691 -7.29669 -88.2984 -18.6385 -9.59099 -6.46769e-008 -21.202 0.317984 -172.909 20.9743 1.90735e-006 3.55271e-015 13.0881 -1.02397 2.18396 20.3015 -7.6294e-006 3.8147e-006 2.49017 4.77994 -2.28523 21.6394 -2.84217e-014 2.13163e-014 -12.0226 -2.39457 -2.51394 21.9115 -3.46716 0.59848 -17.1168 14.8476 7.10968 -19.7913 -7.52001 -18.899 -78.716 -28.3774 170.016 34.2647 -1.90735e-006 3.8147e-006 -93.0288 -9.19163e-006 1.62735e-005 20.4429 3.8147e-006 0 58.5455 4.15263e-006 6.34796e-007 16.5673 -3.8147e-006 3.8147e-006 -40.4865 4.55646 5.51275 9.18783 6.9484 -2.61236e-008 85.335 55.9536 73.4631 1.01906 1.86517e-014 -7.6294e-006 -3.97943e-008 -1.09057e-008 2.38287e-007 -23.8646 1.25652 13.9089 -83.0928 -5.98647 152.358 34.2647 -7.10543e-015 -2.38419e-007 -62.7676 1.30229e-005 1.66773e-005 20.4429 3.8147e-006 4.76837e-007 72.1083 -7.99234e-006 -5.93632e-006 16.5673 7.6294e-006 2.38419e-007 -54.5059 -8.97581 20.6378 9.18785 6.94841 1.91743e-006 124.996 0.000267574 -0.000190768 1.01907 -1.42109e-014 3.55271e-014 -179.96 -8.23411e-005 4.47688e-005 39.345 -0.0175152 -0.0160246 27.1446 39.5441 -6.00345 34.2857 -15.5931 0.00102712 10.2979 -4.71908 1.43989 -19.0959 -8.36052 -7.34187 170.194 -41.82 114.143 17.4439 3.8147e-006 -3.8147e-006 110.006 48.8865 -150.22 30.6251 3.8147e-006 -3.33786e-006 -56.2807 -2.3775e-006 1.19066e-005 31.2039 -1.90735e-006 -4.76837e-007 -152.001 85.851 148.607 22.1039 0.255848 -0.379028 -1.69405 4.10709 -24.5926 12.0552 -2.26498e-006 -1.90735e-006 -179.96 1.84497e-005 1.74997e-005 -19.3978 -9.33202 5.00319 169.662 1.31573 -106.005 17.4439 5.68434e-014 7.62939e-006 -144.961 -58.0694 -98.7363 30.6251 3.8147e-006 -7.10542e-015 -66.8268 -1.04032e-005 -1.74037e-005 31.2039 5.72206e-006 -3.81469e-006 172.148 -84.0863 152.49 22.1039 0.255875 0.379043 -4.97938 1.99249 4.44996 12.0552 -7.10545e-015 -1.19209e-007 2.97264e-007 -2.40659e-009 2.65449e-008 14.939 -0.00992966 5.96103e-008 21.334 1.51957 14.8441 14.3577 0.50549 9.47226e-007 -8.59983 24.6971 7.93019 3.76992 -2.35629 12.3444 -173.118 23.0703 -94.3708 3.76995 -2.35624 -12.3442 6.08091 29.8748 100.171 11.8395 10.8645 -3.29301e-007 -177.205 -3.70554 178.781 9.7375 3.21676 -7.75934e-006 -2.85749 1.01054e-005 9.75047e-006 2.55461 -1.10588 -0.153767 4.77837 -2.94618 -1.72235 6.93462 -0.751784 -7.59903e-006 -55.5985 -25.9367 -57.628 13.0966 -7.6294e-006 -9.53674e-007 3.94405 41.2487 -20.906 25.6158 3.8147e-006 7.6294e-006 -1.83992e-007 2.35671e-006 -1.09063e-006 
